<?xml version="1.0" encoding="UTF-8" standalone="no"?>
<!-- Created with Inkscape (http://www.inkscape.org/) -->

<svg
   version="1.1"
   id="svg69"
   width="548.57141"
   height="548.57141"
   viewBox="0 0 548.57141 548.57141"
   sodipodi:docname="logo.svg"
   inkscape:version="1.1.1 (1:1.1+202109281949+c3084ef5ed)"
   xmlns:inkscape="http://www.inkscape.org/namespaces/inkscape"
   xmlns:sodipodi="http://sodipodi.sourceforge.net/DTD/sodipodi-0.dtd"
   xmlns="http://www.w3.org/2000/svg"
   xmlns:svg="http://www.w3.org/2000/svg">
  <defs
     id="defs73" />
  <sodipodi:namedview
     id="namedview71"
     pagecolor="#505050"
     bordercolor="#eeeeee"
     borderopacity="1"
     inkscape:pageshadow="0"
     inkscape:pageopacity="0"
     inkscape:pagecheckerboard="0"
     showgrid="false"
     inkscape:zoom="0.90963545"
     inkscape:cx="352.33895"
     inkscape:cy="128.07328"
     inkscape:window-width="1366"
     inkscape:window-height="694"
     inkscape:window-x="0"
     inkscape:window-y="0"
     inkscape:window-maximized="1"
     inkscape:current-layer="g75" />
  <g
     inkscape:groupmode="layer"
     inkscape:label="Image"
     id="g75">
    <path
       style="fill:#d62828;stroke-width:1.09934;fill-opacity:1"
       d="m 386.65164,451.79608 c -9.81642,-4.49474 -18.9624,-18.20331 -22.99108,-34.46043 -2.07537,-8.37488 -4.10487,-28.83609 -3.11582,-31.41351 1.04483,-2.72278 -0.66901,-1.72134 -34.19553,19.9813 l -31.53655,20.41449 -9.18932,1.14191 c -10.70676,1.33047 -18.52648,0.46149 -34.1509,-3.79507 -5.89458,-1.60586 -10.92562,-2.71155 -11.18008,-2.4571 -0.25445,0.25447 1.31015,1.81485 3.47692,3.46752 3.27087,2.49482 3.8824,3.5938 3.60278,6.47452 l -0.33679,3.46966 -15.39078,-0.19515 c -8.46493,-0.10729 -22.31663,-0.74227 -30.78156,-1.41098 -32.48145,-2.56596 -37.78718,-3.90705 -46.72202,-11.80947 -4.18078,-3.6977 -5.54301,-4.30492 -8.79473,-3.92025 -4.81421,0.56949 -11.32079,-3.4911 -30.97029,-19.32785 C 96.620018,383.64511 88.965928,375.43887 86.527958,368.0988 l -1.86312,-5.6093 -1.81507,3.63436 c -2.11711,4.23915 -5.53382,5.16472 -8.19802,2.22081 -2.94119,-3.24997 -10.28762,-21.10546 -13.29999,-32.3256 -6.37887,-23.75933 -6.85275,-62.55409 -1.17476,-96.1749 l 0.71025,-4.20562 -9.42184,9.70326 c -10.94282,11.26967 -13.11928,11.86259 -13.64163,3.71633 -0.38245,-5.96461 2.96681,-20.46101 7.09216,-30.69657 3.22131,-7.99252 13.48303,-23.83877 24.48096,-37.80375 5.25171,-6.66853 7.25015,-9.99169 6.35207,-10.56267 -0.72067,-0.4582 -11.24183,-0.84067 -23.38035,-0.84993 -21.6377,-0.0165 -22.11686,-0.0666 -24.46035,-2.5612 -1.31467,-1.3994 -2.39031,-3.35016 -2.39031,-4.33503 0,-3.77322 2.84805,-4.89099 41.2253,-16.17979 15.88042,-4.67128 33.14519,-11.91055 31.63773,-13.26597 -0.47089,-0.4234 -3.66093,-1.63067 -7.08898,-2.68283 -7.59661,-2.33159 -16.98568,-7.83192 -19.79409,-11.59581 -1.14187,-1.53034 -2.18409,-4.22576 -2.31605,-5.98982 -0.32397,-4.33084 1.01306,-4.63583 25.5946,-5.83841 19.236332,-0.94109 20.784372,-1.18331 28.582882,-4.47242 11.79668,-4.975368 11.8889,-5.050578 9.92083,-8.092058 -5.20146,-8.03844 -7.71971,-14.60116 -7.66542,-19.97661 0.0676,-6.69061 3.54113,-16.2118 8.44051,-23.13582 2.82051,-3.986054 4.20507,-5.017305 6.73628,-5.017305 3.84237,0 5.88623,2.190415 5.87603,6.297355 -0.0247,9.94353 1.1197,14.78972 4.36543,18.48641 4.67188,5.32097 11.06588,6.87077 33.75582,8.18186 59.14263,3.41741 71.63074,5.85866 89.43898,17.484 4.42642,2.8896 10.2792,7.804358 13.00617,10.921698 4.10939,4.69766 5.83379,5.83148 10.07359,6.62356 5.7347,1.07136 18.56524,8.64043 26.5281,15.64962 8.67595,7.63687 21.59066,28.16641 21.59066,34.32103 0,4.79137 -2.18874,6.6301 -7.19627,6.04551 -3.73315,-0.43583 -3.89518,-0.31888 -3.25795,2.35147 1.812,7.59316 5.25495,19.91151 5.48501,19.62452 0.14297,-0.17836 3.62251,-9.4763 7.73231,-20.6621 4.10979,-11.1858 7.9557,-20.96209 8.54647,-21.72508 0.83807,-1.08239 10.16208,-1.32398 42.4288,-1.09934 l 41.35467,0.28792 0.68323,25.28485 c 0.37578,13.90667 1.05295,50.14371 1.50484,80.52676 0.60765,40.85572 1.1553,55.24192 2.10293,55.24192 0.70473,0 2.16266,-1.49198 3.23983,-3.31549 1.07718,-1.82351 3.70795,-5.01451 5.84615,-7.09111 7.0201,-6.81783 19.71767,-7.51664 31.09685,-1.71141 10.96224,5.59251 25.99606,23.9966 32.94873,40.33512 6.92808,16.28074 8.32465,23.44203 8.3254,42.69041 6.3e-4,16.03246 -0.22325,18.07603 -2.52915,23.08617 -2.85482,6.20283 -7.96708,11.99157 -12.86095,14.56278 -5.21193,2.73833 -17.4604,2.28393 -24.15642,-0.89616 -6.89545,-3.27481 -20.10333,-15.74576 -25.95166,-24.50369 -4.50405,-6.74488 -12.24643,-13.07901 -15.30274,-12.51937 -1.40179,0.25668 -1.5894,2.83308 -1.25145,17.18517 0.44893,19.06378 0.56988,18.76965 -7.72976,18.79687 l -5.13353,0.0168 -1.89036,5.77154 c -4.68086,14.29123 -12.47243,25.36502 -20.6232,29.31074 -6.06404,2.93555 -16.05568,3.04075 -22.18647,0.23357 z M 349.63,375.34925 c 5.63752,-0.84654 10.46976,-1.75887 10.73831,-2.02743 1.63565,-1.63565 3.34804,-12.4463 2.61732,-16.52368 -0.4563,-2.54617 -1.44604,-12.29729 -2.19943,-21.66918 -0.75338,-9.37189 -1.67301,-17.61374 -2.04361,-18.31524 -0.37061,-0.70149 -3.88849,4.14327 -7.81753,10.76611 -7.36775,12.41923 -10.51488,15.11737 -13.78017,11.81419 -0.82462,-0.83419 -3.98883,-6.21639 -7.03158,-11.96045 -4.66591,-8.80825 -5.54486,-9.92727 -5.61268,-7.14572 -0.0442,1.81391 -0.98018,14.92356 -2.07991,29.13255 -1.09972,14.20899 -1.78589,26.20555 -1.52482,26.65903 0.77853,1.35229 17.73538,0.92138 28.7341,-0.73018 z m -122.89442,-46.5415 c 0.021,-1.05812 4.91817,-39.27398 10.88265,-84.92413 5.9645,-45.65016 10.65805,-83.19539 10.43014,-83.43384 -0.22793,-0.23845 -2.68411,0.43326 -5.45818,1.49268 -10.18711,3.8905 -21.66075,18.08532 -31.89776,39.46291 -8.39284,17.52645 -10.48501,25.71905 -11.17801,43.77129 -1.16315,30.29926 6.17689,57.71672 21.3492,79.74623 4.17109,6.05624 5.80747,7.13885 5.87196,3.88486 z"
       id="path159" />
  </g>
</svg>
