<?xml version="1.0" encoding="UTF-8" standalone="no"?>
<!-- Created with Inkscape (http://www.inkscape.org/) -->

<svg
   version="1.1"
   id="svg59"
   width="50"
   height="50"
   viewBox="0 0 50 50"
   sodipodi:docname="publicity.svg"
   inkscape:version="1.1.1 (1:1.1+202109281949+c3084ef5ed)"
   xmlns:inkscape="http://www.inkscape.org/namespaces/inkscape"
   xmlns:sodipodi="http://sodipodi.sourceforge.net/DTD/sodipodi-0.dtd"
   xmlns="http://www.w3.org/2000/svg"
   xmlns:svg="http://www.w3.org/2000/svg">
  <defs
     id="defs63" />
  <sodipodi:namedview
     id="namedview61"
     pagecolor="#505050"
     bordercolor="#eeeeee"
     borderopacity="1"
     inkscape:pageshadow="0"
     inkscape:pageopacity="0"
     inkscape:pagecheckerboard="0"
     showgrid="false"
     inkscape:zoom="9.98"
     inkscape:cx="25"
     inkscape:cy="25"
     inkscape:window-width="1366"
     inkscape:window-height="694"
     inkscape:window-x="0"
     inkscape:window-y="0"
     inkscape:window-maximized="1"
     inkscape:current-layer="g65" />
  <g
     inkscape:groupmode="layer"
     inkscape:label="Image"
     id="g65">
    <path
       style="fill:#d62828;fill-opacity:1"
       d="m 32.064942,41.6305 c -4.081489,-4.108913 -7.094962,-7.796677 -6.696607,-8.195033 0.398356,-0.398355 3.863233,2.390614 7.699727,6.19771 l 6.975443,6.921993 3.22696,-3.226961 c 1.774828,-1.774828 2.673114,-3.22696 1.996191,-3.22696 -0.676923,0 -1.230769,-0.705324 -1.230769,-1.567388 0,-1.136888 -0.576435,-1.384434 -2.09872,-0.901279 -1.78619,0.566914 -1.999527,0.353577 -1.432613,-1.432613 0.483155,-1.522285 0.235609,-2.09872 -0.901279,-2.09872 -0.862064,0 -1.567388,-0.705324 -1.567388,-1.567388 0,-1.136888 -0.576435,-1.384434 -2.09872,-0.901279 -1.78619,0.566914 -1.999527,0.353577 -1.432613,-1.432613 0.492918,-1.553046 0.236916,-2.09872 -0.984613,-2.09872 -1.694313,0 -1.617702,-2.122117 0.09725,-2.693767 0.525966,-0.175322 4.307784,3.055232 8.40404,7.17901 l 7.447737,7.497778 -4.424747,4.50849 c -2.433613,2.479669 -4.679819,4.508489 -4.99157,4.508489 -0.31175,0 -3.906219,-3.361837 -7.987709,-7.470749 z M 2.4354621,45.645352 c 1.313726,-5.2343 2.629073,-7.244597 8.5177219,-13.017967 L 17.04633,26.653522 8.8087381,18.372914 0.57114606,10.092306 5.2990451,5.3644072 10.026944,0.63650815 18.304385,8.8709502 26.581827,17.105392 34.033829,9.6033208 c 4.098602,-4.1261393 8.181021,-7.5020715 9.072043,-7.5020715 1.940711,0 4.930015,3.0854686 4.930015,5.0886108 0,2.4530469 -37.083104,38.5299369 -40.8992229,39.7894619 -4.827375,1.593294 -5.395443,1.432104 -4.701202,-1.33397 z M 27.527519,27.109627 44.497088,10.118006 42.25441,7.8753282 40.011732,5.6326503 22.825407,22.818976 C 5.8171681,39.827214 5.6582861,40.026523 7.4924721,42.053275 c 1.019364,1.126386 2.12611,2.047974 2.459435,2.047974 0.3333239,0 8.2423499,-7.64623 17.5756119,-16.991622 z m -4.491632,-8.75008 c 0,-1.975521 -0.366193,-2.276848 -2.09872,-1.726965 -1.78619,0.566914 -1.999527,0.353577 -1.432613,-1.432613 0.483155,-1.522285 0.235609,-2.09872 -0.901279,-2.09872 -0.862064,0 -1.567388,-0.705324 -1.567388,-1.567388 0,-1.136888 -0.576435,-1.384434 -2.09872,-0.901279 -1.78619,0.566914 -1.999527,0.353577 -1.432613,-1.4326124 0.483155,-1.5222852 0.235609,-2.0987203 -0.901279,-2.0987203 -0.862064,0 -1.567388,-0.675 -1.567388,-1.5 0,-2.2644711 -1.3180119,-1.8212796 -4.5185979,1.5194125 l -2.892781,3.0194122 7.4116309,7.461429 7.411632,7.461429 2.294058,-2.155155 c 1.261732,-1.185336 2.294058,-3.232039 2.294058,-4.54823 z"
       id="path239" />
  </g>
</svg>
